<svg width="68" height="68" viewBox="0 0 68 68" fill="none" xmlns="http://www.w3.org/2000/svg">
<g clip-path="url(#clip0_3_7)">
<path d="M58.2655 52.1297C57.1836 56.2838 54.7855 59.9025 50.4928 59.9025L33.5266 63.9259L16.2927 59.9025C12.1123 58.9265 8.51992 56.4224 8.51992 52.1297L5.26689 35.4219L8.51992 17.9296C9.30477 13.7092 11.9999 10.1568 16.2927 10.1568L33.1841 4.76364L50.4928 10.1568C54.5912 11.4338 58.2655 13.6369 58.2655 17.9296L62.9739 34.0522L58.2655 52.1297Z" fill="#3C8DBC"/>
<path d="M44.5377 36.8681V20.9772H33.4146V49.2084C35.3841 48.1656 37.147 47.0316 38.7031 45.8068C42.5929 42.7609 44.5377 39.7814 44.5377 36.8681V36.8681ZM49.305 17.799V36.8681C49.305 38.2915 49.0281 39.7026 48.4734 41.1016C47.9189 42.5003 47.2318 43.7419 46.4126 44.826C45.5932 45.9099 44.6167 46.9653 43.4826 47.9918C42.3491 49.018 41.3016 49.8705 40.3417 50.5494C39.3816 51.2279 38.3803 51.8691 37.3373 52.4735C36.2947 53.0778 35.5538 53.4873 35.1154 53.7024C34.6765 53.9175 34.3249 54.0833 34.0599 54.1992C33.8613 54.2984 33.646 54.3482 33.4146 54.3482C33.1828 54.3482 32.9677 54.2984 32.7688 54.1992C32.5039 54.0833 32.1522 53.9175 31.7135 53.7024C31.275 53.4873 30.5342 53.0778 29.4912 52.4735C28.4484 51.8691 27.4469 51.2279 26.4869 50.5494C25.5269 49.8705 24.4796 49.018 23.346 47.9918C22.2121 46.9653 21.2355 45.9099 20.416 44.826C19.5967 43.7419 18.9097 42.5003 18.3552 41.1016C17.8006 39.7026 17.5234 38.2915 17.5234 36.8681V17.799C17.5234 17.3686 17.6807 16.9962 17.9951 16.6817C18.3098 16.3672 18.6822 16.2098 19.1124 16.2098H47.7162C48.1464 16.2098 48.519 16.3672 48.8335 16.6817C49.148 16.9962 49.305 17.3686 49.305 17.799V17.799Z" fill="white"/>
<path d="M59.4265 55.3487C64.2962 49.5659 67.1876 41.9569 67.1876 33.8914C67.1876 15.4778 52.1219 0.412048 33.7082 0.412048C15.2945 0.412048 0.228825 15.4778 0.228825 33.8914C0.228825 52.3051 15.2945 67.3708 33.7082 67.3708C41.7737 67.3708 49.3826 64.4794 55.1654 59.6097L59.4265 55.3487ZM33.7082 61.2836C18.6425 61.2836 6.31598 48.9571 6.31598 33.8914C6.31598 18.8257 18.6425 6.49921 33.7082 6.49921C48.7739 6.49921 61.1004 18.8257 61.1004 33.8914C61.1004 48.9571 48.7739 61.2836 33.7082 61.2836Z" fill="#808080"/>
</g>
<defs>
<clipPath id="clip0_3_7">
<rect width="68" height="68" fill="white"/>
</clipPath>
</defs>
</svg>
