<svg width="68" height="68" viewBox="0 0 68 68" fill="none" xmlns="http://www.w3.org/2000/svg">
    <g clip-path="url(#clip0_4_27)">
        <path
            d="M58.2656 52.1297C57.1836 56.2838 54.7855 59.9025 50.4928 59.9025L33.5266 63.9259L16.2927 59.9025C12.1123 58.9265 8.51993 56.4224 8.51993 52.1297L5.26689 35.4219L8.51993 17.9296C9.30478 13.7092 11.9999 10.1568 16.2927 10.1568L33.1841 4.76364L50.4928 10.1568C54.5912 11.4338 58.2656 13.6369 58.2656 17.9296L62.9739 34.0522L58.2656 52.1297Z"
            fill="#3C8DBC" />
        <path
            d="M44.5377 36.8681V20.9772H33.4146V49.2084C35.3841 48.1656 37.147 47.0316 38.7031 45.8068C42.5929 42.7609 44.5377 39.7814 44.5377 36.8681V36.8681ZM49.305 17.7991V36.8681C49.305 38.2915 49.0281 39.7026 48.4734 41.1016C47.9189 42.5003 47.2318 43.7419 46.4126 44.826C45.5932 45.9099 44.6167 46.9653 43.4826 47.9918C42.3491 49.018 41.3016 49.8705 40.3417 50.5494C39.3816 51.2279 38.3803 51.8691 37.3373 52.4736C36.2947 53.0778 35.5538 53.4873 35.1154 53.7024C34.6765 53.9175 34.3249 54.0833 34.0599 54.1992C33.8613 54.2984 33.646 54.3482 33.4146 54.3482C33.1828 54.3482 32.9677 54.2984 32.7688 54.1992C32.5039 54.0833 32.1522 53.9175 31.7135 53.7024C31.275 53.4873 30.5342 53.0778 29.4912 52.4736C28.4484 51.8691 27.4469 51.2279 26.4869 50.5494C25.5269 49.8705 24.4796 49.018 23.346 47.9918C22.2121 46.9653 21.2355 45.9099 20.416 44.826C19.5967 43.7419 18.9097 42.5003 18.3552 41.1016C17.8006 39.7026 17.5234 38.2915 17.5234 36.8681V17.7991C17.5234 17.3686 17.6807 16.9962 17.9951 16.6817C18.3098 16.3672 18.6822 16.2098 19.1124 16.2098H47.7162C48.1464 16.2098 48.519 16.3672 48.8335 16.6817C49.148 16.9962 49.305 17.3686 49.305 17.7991V17.7991Z"
            fill="white" />
        <path
            d="M59.4264 55.3487C64.2962 49.5659 67.1876 41.9569 67.1876 33.8914C67.1876 15.4778 52.1219 0.412056 33.7082 0.412056C15.2945 0.412056 0.228821 15.4778 0.228821 33.8914C0.228821 52.3051 15.2945 67.3708 33.7082 67.3708C41.7737 67.3708 49.3826 64.4794 55.1654 59.6097L59.4264 55.3487ZM33.7082 61.2837C18.6425 61.2837 6.31598 48.9572 6.31598 33.8914C6.31598 18.8257 18.6425 6.49922 33.7082 6.49922C48.7739 6.49922 61.1004 18.8257 61.1004 33.8914C61.1004 48.9572 48.7739 61.2837 33.7082 61.2837Z"
            fill="#808080" />
        <g clip-path="url(#clip1_4_27)">
            <path
                d="M40.8334 49.9167C40.8334 52.3478 41.7991 54.6794 43.5182 56.3985C45.2373 58.1176 47.5689 59.0833 50 59.0833C52.4312 59.0833 54.7627 58.1176 56.4818 56.3985C58.2009 54.6794 59.1667 52.3478 59.1667 49.9167C59.1667 47.4855 58.2009 45.1539 56.4818 43.4349C54.7627 41.7158 52.4312 40.75 50 40.75C47.5689 40.75 45.2373 41.7158 43.5182 43.4349C41.7991 45.1539 40.8334 47.4855 40.8334 49.9167V49.9167Z"
                fill="#2980B9" />
            <path
                d="M40.8334 49C40.8334 51.4311 41.7991 53.7627 43.5182 55.4818C45.2373 57.2009 47.5689 58.1667 50 58.1667C52.4312 58.1667 54.7627 57.2009 56.4818 55.4818C58.2009 53.7627 59.1667 51.4311 59.1667 49C59.1667 46.5688 58.2009 44.2373 56.4818 42.5182C54.7627 40.7991 52.4312 39.8333 50 39.8333C47.5689 39.8333 45.2373 40.7991 43.5182 42.5182C41.7991 44.2373 40.8334 46.5688 40.8334 49V49Z"
                fill="#2974A8" />
            <path
                d="M50 44.4167C47.2724 44.4167 45.0195 46.3417 44.586 49H46.4765C46.8842 47.35 48.2923 46.25 50 46.25C51.2522 46.25 52.3256 46.8916 52.9792 47.8083L51.8333 49H53.5237H55.4138H55.5V45.3333L54.3258 46.4333C53.322 45.15 51.7554 44.4167 50 44.4167ZM44.5 50.8333V54.5L45.6744 53.3083C46.6782 54.5916 48.2446 55.4167 50 55.4167C52.728 55.4167 54.9803 53.4 55.4138 50.8333H53.5237C53.1158 52.3917 51.7078 53.5833 50 53.5833C48.7478 53.5833 47.6745 52.9416 47.0208 51.9333L48.1667 50.8333H46.4765H44.586H44.5Z"
                fill="#2980B9" />
            <path
                d="M50 43.5C47.2724 43.5 45.0195 45.4787 44.586 48.0833H46.4765C46.8842 46.5027 48.2923 45.3333 50 45.3333C51.2522 45.3333 52.3256 45.9789 52.9792 46.9375L51.8333 48.0833H53.5237H55.4138H55.5V44.4167L54.3258 45.5911C53.322 44.3121 51.7554 43.5 50 43.5ZM44.5 49.9167V53.5833L45.6744 52.4091C46.6782 53.6878 48.2446 54.5 50 54.5C52.728 54.5 54.9803 52.5209 55.4138 49.9167H53.5237C53.1158 51.497 51.7078 52.6667 50 52.6667C48.7478 52.6667 47.6745 52.0213 47.0208 51.0625L48.1667 49.9167H46.4765H44.586H44.5Z"
                fill="#ECF0F1" />
        </g>
    </g>
    <defs>
        <clipPath id="clip0_4_27">
            <rect width="68" height="68" fill="white" />
        </clipPath>
        <clipPath id="clip1_4_27">
            <rect width="22" height="22" fill="white" transform="translate(39 38)" />
        </clipPath>
    </defs>
</svg>