<svg width="68" height="68" viewBox="0 0 68 68" fill="none" xmlns="http://www.w3.org/2000/svg">
<g clip-path="url(#clip0_3_12)">
<path d="M58.4422 52.6076C57.3602 56.7617 54.9622 60.3803 50.6694 60.3803L33.7032 64.4038L16.4693 60.3803C12.289 59.4044 8.69655 56.9003 8.69655 52.6076L5.44351 35.8998L8.69655 18.4075C9.4814 14.1871 12.1766 10.6347 16.4693 10.6347L33.3608 5.24152L50.6694 10.6347C54.7678 11.9117 58.4422 14.1148 58.4422 18.4075L63.1505 34.5301L58.4422 52.6076Z" fill="#3C8DBC"/>
<path d="M44.7143 37.346V21.4551H33.5912V49.6862C35.5607 48.6435 37.3236 47.5095 38.8797 46.2846C42.7695 43.2387 44.7143 40.2592 44.7143 37.346V37.346ZM49.4816 18.2769V37.346C49.4816 38.7693 49.2047 40.1805 48.65 41.5794C48.0956 42.9782 47.4084 44.2197 46.5892 45.3039C45.7699 46.3878 44.7934 47.4432 43.6592 48.4697C42.5258 49.4958 41.4782 50.3484 40.5183 51.0272C39.5583 51.7058 38.5569 52.347 37.5139 52.9514C36.4713 53.5557 35.7304 53.9652 35.292 54.1803C34.8531 54.3954 34.5015 54.5612 34.2365 54.6771C34.038 54.7763 33.8226 54.8261 33.5912 54.8261C33.3594 54.8261 33.1443 54.7763 32.9454 54.6771C32.6805 54.5612 32.3288 54.3954 31.8901 54.1803C31.4516 53.9652 30.7108 53.5557 29.6678 52.9514C28.6251 52.347 27.6235 51.7057 26.6636 51.0272C25.7035 50.3484 24.6562 49.4959 23.5226 48.4697C22.3887 47.4432 21.4121 46.3878 20.5926 45.3039C19.7733 44.2197 19.0863 42.9782 18.5318 41.5794C17.9772 40.1805 17.7 38.7693 17.7 37.346V18.2769C17.7 17.8465 17.8574 17.474 18.1717 17.1596C18.4864 16.845 18.8588 16.6876 19.2891 16.6876H47.8928C48.3231 16.6876 48.6957 16.845 49.0101 17.1596C49.3246 17.474 49.4816 17.8465 49.4816 18.2769V18.2769Z" fill="white"/>
<path d="M59.4264 55.3487C64.2962 49.5659 67.1876 41.9569 67.1876 33.8914C67.1876 15.4778 52.1219 0.412048 33.7082 0.412048C15.2945 0.412048 0.228821 15.4778 0.228821 33.8914C0.228821 52.3051 15.2945 67.3708 33.7082 67.3708C41.7737 67.3708 49.3826 64.4794 55.1654 59.6097L59.4264 55.3487ZM33.7082 61.2836C18.6425 61.2836 6.31598 48.9571 6.31598 33.8914C6.31598 18.8257 18.6425 6.49921 33.7082 6.49921C48.7739 6.49921 61.1004 18.8257 61.1004 33.8914C61.1004 48.9571 48.7739 61.2836 33.7082 61.2836Z" fill="#E6E6E6"/>
<path d="M58.8907 45.2273H58.5649V40.6328C58.5649 36.4239 54.947 33 50.5 33C46.053 33 42.4351 36.4239 42.4351 40.6328V45.2273H42.1093C40.3929 45.2273 39 46.5446 39 48.1701V60.0572C39 61.6827 40.3925 63 42.1093 63H58.8907C60.6071 63 62 61.683 62 60.0572V48.1701C61.9997 46.5446 60.6071 45.2273 58.8907 45.2273ZM45.4808 40.6328C45.4808 38.0135 47.7322 35.8826 50.5 35.8826C53.2678 35.8826 55.5192 38.0135 55.5192 40.6328V45.2273H45.4808V40.6328ZM51.7974 55.4521V58.5426C51.7974 59.2206 51.2164 59.7705 50.5 59.7705C49.7836 59.7705 49.2026 59.2206 49.2026 58.5426V55.4521C48.1681 54.9906 47.451 53.9977 47.451 52.8434C47.451 51.2493 48.8158 49.9573 50.5 49.9573C52.1842 49.9573 53.549 51.2493 53.549 52.8434C53.549 53.9977 52.8319 54.9903 51.7974 55.4521V55.4521Z" fill="#FF0000"/>
</g>
<defs>
<clipPath id="clip0_3_12">
<rect width="68" height="68" fill="white"/>
</clipPath>
</defs>
</svg>
